<svg width="17" height="20" viewBox="0 0 17 20" fill="none" xmlns="http://www.w3.org/2000/svg">
<path d="M1 20.0006C0.734784 20.0006 0.48043 19.8953 0.292893 19.7077C0.105357 19.5202 0 19.2658 0 19.0006V11.0006C0 10.7354 0.105357 10.481 0.292893 10.2935C0.48043 10.106 0.734784 10.0006 1 10.0006C1.26522 10.0006 1.51957 10.106 1.70711 10.2935C1.89464 10.481 2 10.7354 2 11.0006V19.0006C2 19.2658 1.89464 19.5202 1.70711 19.7077C1.51957 19.8953 1.26522 20.0006 1 20.0006ZM6 20.0006C5.73478 20.0006 5.48043 19.8953 5.29289 19.7077C5.10536 19.5202 5 19.2658 5 19.0006V1.00061C5 0.735394 5.10536 0.48104 5.29289 0.293504C5.48043 0.105967 5.73478 0.000610352 6 0.000610352C6.26522 0.000610352 6.51957 0.105967 6.70711 0.293504C6.89464 0.48104 7 0.735394 7 1.00061V19.0006C7 19.2658 6.89464 19.5202 6.70711 19.7077C6.51957 19.8953 6.26522 20.0006 6 20.0006ZM11 20.0006C10.7348 20.0006 10.4804 19.8953 10.2929 19.7077C10.1054 19.5202 10 19.2658 10 19.0006V7.00061C10 6.73539 10.1054 6.48104 10.2929 6.2935C10.4804 6.10597 10.7348 6.00061 11 6.00061C11.2652 6.00061 11.5196 6.10597 11.7071 6.2935C11.8946 6.48104 12 6.73539 12 7.00061V19.0006C12 19.2658 11.8946 19.5202 11.7071 19.7077C11.5196 19.8953 11.2652 20.0006 11 20.0006ZM16 20.0006C15.7348 20.0006 15.4804 19.8953 15.2929 19.7077C15.1054 19.5202 15 19.2658 15 19.0006V15.0006C15 14.7354 15.1054 14.481 15.2929 14.2935C15.4804 14.106 15.7348 14.0006 16 14.0006C16.2652 14.0006 16.5196 14.106 16.7071 14.2935C16.8946 14.481 17 14.7354 17 15.0006V19.0006C17 19.2658 16.8946 19.5202 16.7071 19.7077C16.5196 19.8953 16.2652 20.0006 16 20.0006Z" fill="#333333"/>
</svg>
