<svg width="60" height="20" viewBox="0 0 60 20" fill="none" xmlns="http://www.w3.org/2000/svg">
<path d="M0.572443 0.0909085H4.44105L9.06676 8.45597H9.25142L13.8771 0.0909085H17.7457L10.8672 11.946V19H7.45099V11.946L0.572443 0.0909085ZM23.5694 19.277C22.1845 19.277 20.9842 18.9723 19.9686 18.3629C18.9529 17.7536 18.1651 16.901 17.6049 15.8054C17.051 14.7098 16.774 13.4295 16.774 11.9645C16.774 10.4995 17.051 9.21615 17.6049 8.11435C18.1651 7.01255 18.9529 6.15696 19.9686 5.54759C20.9842 4.93821 22.1845 4.63352 23.5694 4.63352C24.9544 4.63352 26.1547 4.93821 27.1703 5.54759C28.1859 6.15696 28.9707 7.01255 29.5247 8.11435C30.0848 9.21615 30.3649 10.4995 30.3649 11.9645C30.3649 13.4295 30.0848 14.7098 29.5247 15.8054C28.9707 16.901 28.1859 17.7536 27.1703 18.3629C26.1547 18.9723 24.9544 19.277 23.5694 19.277ZM23.5879 16.5994C24.3388 16.5994 24.9667 16.3932 25.4714 15.9808C25.9761 15.5623 26.3516 15.0021 26.5978 14.3004C26.8502 13.5987 26.9764 12.817 26.9764 11.9553C26.9764 11.0874 26.8502 10.3026 26.5978 9.60085C26.3516 8.89299 25.9761 8.32978 25.4714 7.91122C24.9667 7.49266 24.3388 7.28338 23.5879 7.28338C22.8185 7.28338 22.1783 7.49266 21.6674 7.91122C21.1627 8.32978 20.7842 8.89299 20.5318 9.60085C20.2856 10.3026 20.1625 11.0874 20.1625 11.9553C20.1625 12.817 20.2856 13.5987 20.5318 14.3004C20.7842 15.0021 21.1627 15.5623 21.6674 15.9808C22.1783 16.3932 22.8185 16.5994 23.5879 16.5994ZM29.2892 0.0909085H33.1578L37.7836 8.45597H37.9682L42.5939 0.0909085H46.4625L39.584 11.946V19H36.1678V11.946L29.2892 0.0909085ZM52.2862 19.277C50.9013 19.277 49.701 18.9723 48.6854 18.3629C47.6697 17.7536 46.8819 16.901 46.3217 15.8054C45.7678 14.7098 45.4908 13.4295 45.4908 11.9645C45.4908 10.4995 45.7678 9.21615 46.3217 8.11435C46.8819 7.01255 47.6697 6.15696 48.6854 5.54759C49.701 4.93821 50.9013 4.63352 52.2862 4.63352C53.6712 4.63352 54.8714 4.93821 55.8871 5.54759C56.9027 6.15696 57.6875 7.01255 58.2415 8.11435C58.8016 9.21615 59.0817 10.4995 59.0817 11.9645C59.0817 13.4295 58.8016 14.7098 58.2415 15.8054C57.6875 16.901 56.9027 17.7536 55.8871 18.3629C54.8714 18.9723 53.6712 19.277 52.2862 19.277ZM52.3047 16.5994C53.0556 16.5994 53.6835 16.3932 54.1882 15.9808C54.6929 15.5623 55.0684 15.0021 55.3146 14.3004C55.567 13.5987 55.6932 12.817 55.6932 11.9553C55.6932 11.0874 55.567 10.3026 55.3146 9.60085C55.0684 8.89299 54.6929 8.32978 54.1882 7.91122C53.6835 7.49266 53.0556 7.28338 52.3047 7.28338C51.5353 7.28338 50.8951 7.49266 50.3842 7.91122C49.8795 8.32978 49.5009 8.89299 49.2486 9.60085C49.0024 10.3026 48.8793 11.0874 48.8793 11.9553C48.8793 12.817 49.0024 13.5987 49.2486 14.3004C49.5009 15.0021 49.8795 15.5623 50.3842 15.9808C50.8951 16.3932 51.5353 16.5994 52.3047 16.5994Z" fill="#333333"/>
</svg>
